<svg width="784" height="64" viewBox="0 0 784 64" fill="none" xmlns="http://www.w3.org/2000/svg">
<g clip-path="url(#clip0_108_1436)">
<path d="M32.1149 16H32.1134C32.0839 16 32.0562 16 32.0299 16.0004C31.8197 16.0025 31.4742 16.0058 31.4431 16.0062C30.6854 16.0062 29.1693 16.1129 27.5408 16.8296C26.6097 17.2391 25.7721 17.7929 25.0516 18.4755C24.1925 19.2888 23.4926 20.2915 22.9717 21.4563C22.209 23.1618 22.39 26.0344 22.5355 28.3429L22.536 28.3465C22.5516 28.5937 22.5679 28.8519 22.5829 29.1034C22.471 29.1547 22.2895 29.2087 22.0221 29.2087C21.5919 29.2087 21.0802 29.0716 20.5018 28.8013C20.3316 28.7223 20.1374 28.6824 19.923 28.6824C19.5786 28.6824 19.2156 28.7834 18.9007 28.968C18.5045 29.2 18.2485 29.5279 18.179 29.8913C18.1332 30.1318 18.1354 30.607 18.6648 31.0889C18.956 31.3542 19.3838 31.5989 19.9359 31.8165C20.0808 31.8734 20.2528 31.9277 20.4349 31.9853C21.067 32.1856 22.0235 32.4882 22.273 33.0736C22.3994 33.3704 22.345 33.761 22.1117 34.233C22.1056 34.2459 22.0995 34.2585 22.094 34.2718C22.0357 34.4075 21.4918 35.6358 20.3763 36.9312C19.7424 37.6679 19.0442 38.2835 18.3022 38.7615C17.3966 39.3452 16.4166 39.7267 15.3899 39.8954C14.9867 39.9613 14.6988 40.3195 14.7212 40.7266C14.7281 40.8439 14.7557 40.9608 14.8036 41.074C14.8039 41.0747 14.8044 41.0754 14.8047 41.076C14.9678 41.4563 15.3457 41.7793 15.9603 42.0642C16.7112 42.4119 17.8343 42.7045 19.298 42.9334C19.3719 43.0736 19.4487 43.4261 19.5019 43.6674C19.5575 43.9239 19.6155 44.1876 19.6982 44.4677C19.7875 44.7712 20.019 45.1339 20.6137 45.1339C20.8391 45.1339 21.0983 45.0833 21.3984 45.0252C21.838 44.9392 22.439 44.8219 23.1892 44.8219C23.6052 44.8219 24.0362 44.8585 24.4701 44.9303C25.3065 45.0692 26.0275 45.577 26.8618 46.1652C28.0828 47.0258 29.465 48 31.5768 48C31.6344 48 31.6921 47.9981 31.7492 47.9942C31.819 47.9974 31.9055 48 31.9968 48C34.1091 48 35.491 47.0255 36.7107 46.1655L36.7127 46.1637C37.5471 45.5763 38.2673 45.0692 39.1034 44.9303C39.5371 44.8585 39.9681 44.8219 40.3842 44.8219C41.1009 44.8219 41.6683 44.913 42.175 45.0116C42.5057 45.0765 42.7627 45.1077 42.9598 45.1077L42.9791 45.1081H42.9991C43.4341 45.1081 43.7537 44.87 43.8756 44.4534C43.9567 44.1792 44.0145 43.9217 44.0716 43.6609C44.1213 43.4347 44.2007 43.0722 44.2747 42.9305C45.7394 42.7011 46.862 42.4092 47.613 42.0615C48.2261 41.7779 48.6037 41.4553 48.7677 41.0767C48.8168 40.9631 48.8456 40.8455 48.852 40.7257C48.8751 40.3194 48.5868 39.9605 48.1833 39.8945C43.6202 39.1446 41.5645 34.4696 41.4795 34.271C41.474 34.2579 41.4678 34.2449 41.4614 34.2323C41.2281 33.7601 41.1742 33.37 41.3007 33.0727C41.5496 32.4878 42.5056 32.1852 43.1381 31.985C43.3212 31.9275 43.4938 31.8728 43.6375 31.8161C44.2602 31.5709 44.7052 31.3049 44.9988 31.0028C45.3494 30.6427 45.4177 30.2977 45.4135 30.0719C45.4028 29.5256 44.9839 29.0401 44.3177 28.8024C44.0926 28.7096 43.836 28.6607 43.5747 28.6607C43.3968 28.6607 43.1334 28.685 42.884 28.8011C42.3502 29.0502 41.872 29.1863 41.4614 29.2057C41.2431 29.1947 41.09 29.1475 40.9908 29.1025C41.0033 28.8894 41.0171 28.6705 41.0314 28.4422L41.0373 28.3445C41.1835 26.0345 41.3652 23.1596 40.6021 21.4529C40.079 20.284 39.3767 19.2787 38.5141 18.4636C37.7907 17.7806 36.9503 17.227 36.0159 16.8177C34.3897 16.1063 32.8737 16 32.1149 16Z" fill="#FFC222"/>
<path d="M191.059 22.802C190.091 23.2184 189.074 23.5083 188.032 23.6647C188.519 23.5812 189.236 22.7046 189.521 22.3497C189.954 21.8145 190.285 21.2035 190.495 20.5478C190.495 20.4991 190.544 20.4295 190.495 20.3947C190.47 20.3813 190.443 20.3743 190.415 20.3743C190.387 20.3743 190.359 20.3813 190.335 20.3947C189.204 21.0073 188 21.4748 186.752 21.7862C186.708 21.7995 186.662 21.8007 186.618 21.7896C186.574 21.7786 186.534 21.7558 186.501 21.7236C186.404 21.6079 186.3 21.4987 186.188 21.3966C185.679 20.9405 185.102 20.5672 184.477 20.2904C183.633 19.9443 182.722 19.7944 181.812 19.852C180.929 19.9078 180.067 20.1446 179.28 20.5478C178.504 20.9728 177.823 21.5503 177.276 22.2454C176.701 22.9608 176.286 23.7912 176.058 24.6805C175.871 25.5264 175.85 26.4007 175.996 27.2547C175.996 27.4008 175.996 27.4217 175.87 27.4008C170.91 26.6703 166.84 24.9101 163.514 21.1322C163.368 20.9652 163.292 20.9652 163.173 21.1322C161.726 23.3307 162.429 26.8094 164.238 28.5279C164.481 28.7575 164.732 28.9802 164.996 29.1889C164.167 29.13 163.358 28.9052 162.617 28.5279C162.477 28.4375 162.401 28.4862 162.394 28.6532C162.374 28.8846 162.374 29.1174 162.394 29.3489C162.539 30.4583 162.976 31.5093 163.661 32.3943C164.345 33.2793 165.253 33.9667 166.29 34.3861C166.543 34.4944 166.807 34.576 167.076 34.6296C166.309 34.7807 165.521 34.8042 164.746 34.6991C164.579 34.6644 164.516 34.7548 164.579 34.9148C165.601 37.6978 167.821 38.5466 169.449 39.0197C169.671 39.0545 169.894 39.0545 170.145 39.1101C170.145 39.1101 170.145 39.1101 170.103 39.1519C169.623 40.0285 167.682 40.6199 166.791 40.926C165.166 41.5099 163.433 41.733 161.712 41.58C161.441 41.5383 161.378 41.5452 161.309 41.58C161.239 41.6148 161.309 41.6913 161.385 41.7609C161.733 41.9905 162.081 42.1923 162.443 42.3871C163.52 42.9745 164.658 43.4412 165.838 43.7786C171.947 45.4622 178.82 44.2238 183.405 39.6667C187.009 36.0906 188.276 31.1578 188.276 26.2181C188.276 26.0302 188.505 25.9189 188.637 25.8215C189.549 25.1111 190.353 24.2721 191.024 23.3307C191.14 23.1904 191.199 23.0118 191.191 22.8298C191.191 22.7254 191.191 22.7463 191.059 22.802Z" fill="#5392F5"/>
<path fill-rule="evenodd" clip-rule="evenodd" d="M333.933 19.9622C335.506 20.3869 336.742 21.6262 337.16 23.1971C337.92 26.048 337.92 32 337.92 32C337.92 32 337.92 37.952 337.16 40.8029C336.736 42.3797 335.5 43.6189 333.933 44.0378C331.089 44.8 319.68 44.8 319.68 44.8C319.68 44.8 308.276 44.8 305.427 44.0378C303.854 43.6131 302.618 42.3738 302.2 40.8029C301.44 37.952 301.44 32 301.44 32C301.44 32 301.44 26.048 302.2 23.1971C302.624 21.6204 303.86 20.3811 305.427 19.9622C308.276 19.2 319.68 19.2 319.68 19.2C319.68 19.2 331.089 19.2 333.933 19.9622ZM325.512 32L316.035 37.4866V26.5135L325.512 32Z" fill="#C00A27"/>
<path d="M471.189 33.9989L472.101 28.2103H466.484V24.4477C466.484 22.8649 467.268 21.3183 469.776 21.3183H472.366V16.3889C470.857 16.1486 469.334 16.0187 467.806 16C463.183 16 460.165 18.7767 460.165 23.7965V28.2103H455.04V33.9989H460.165V48H466.484V33.9989H471.189Z" fill="#5392F5"/>
<path d="M602.378 32.1945C602.378 28.9777 604.986 26.3692 608.205 26.3692C611.424 26.3692 614.034 28.9777 614.034 32.1945C614.034 35.4114 611.424 38.0198 608.205 38.0198C604.986 38.0198 602.378 35.4114 602.378 32.1945ZM599.227 32.1945C599.227 37.1503 603.246 41.1675 608.205 41.1675C613.164 41.1675 617.183 37.1503 617.183 32.1945C617.183 27.2388 613.164 23.2216 608.205 23.2216C603.246 23.2216 599.227 27.2388 599.227 32.1945ZM615.441 22.8658C615.44 23.2805 615.563 23.686 615.794 24.0309C616.024 24.3759 616.352 24.6448 616.735 24.8036C617.118 24.9625 617.54 25.0042 617.947 24.9234C618.354 24.8427 618.728 24.6431 619.022 24.35C619.315 24.0568 619.515 23.6833 619.596 23.2765C619.678 22.8698 619.636 22.4482 619.478 22.0649C619.319 21.6817 619.05 21.3541 618.705 21.1235C618.36 20.893 617.955 20.7699 617.54 20.7697H617.539C616.983 20.7699 616.449 20.9908 616.056 21.3839C615.662 21.7769 615.441 22.3099 615.441 22.8658ZM601.141 46.4184C599.436 46.3408 598.51 46.057 597.894 45.8173C597.078 45.4996 596.495 45.1214 595.883 44.5102C595.27 43.899 594.891 43.3174 594.575 42.5016C594.335 41.8865 594.051 40.9602 593.973 39.2565C593.889 37.4145 593.872 36.8612 593.872 32.1947C593.872 27.5281 593.89 26.9764 593.973 25.1329C594.051 23.4292 594.337 22.5047 594.575 21.8878C594.893 21.0719 595.271 20.4898 595.883 19.8778C596.494 19.2658 597.076 18.8869 597.894 18.5707C598.509 18.3308 599.436 18.047 601.141 17.9696C602.984 17.8848 603.538 17.8679 608.205 17.8679C612.872 17.8679 613.426 17.8862 615.271 17.9696C616.976 18.0472 617.901 18.333 618.518 18.5707C619.334 18.8869 619.917 19.2666 620.529 19.8778C621.142 20.489 621.519 21.0719 621.837 21.8878C622.077 22.5029 622.361 23.4292 622.439 25.1329C622.523 26.9764 622.54 27.5281 622.54 32.1947C622.54 36.8612 622.523 37.413 622.439 39.2565C622.361 40.9602 622.076 41.8862 621.837 42.5016C621.519 43.3174 621.141 43.8995 620.529 44.5102C619.918 45.1208 619.334 45.4996 618.518 45.8173C617.903 46.0572 616.976 46.3409 615.271 46.4184C613.428 46.5031 612.874 46.52 608.205 46.52C603.536 46.52 602.984 46.5031 601.141 46.4184ZM600.996 14.8258C599.135 14.9105 597.863 15.2055 596.752 15.6375C595.602 16.0836 594.628 16.682 593.655 17.6531C592.682 18.6241 592.084 19.5989 591.638 20.7486C591.206 21.8594 590.911 23.1299 590.826 24.9901C590.74 26.8533 590.72 27.449 590.72 32.1945C590.72 36.9401 590.74 37.5357 590.826 39.3989C590.911 41.2593 591.206 42.5297 591.638 43.6405C592.084 44.7895 592.682 45.7654 593.655 46.736C594.628 47.7066 595.602 48.3042 596.752 48.7516C597.865 49.1836 599.135 49.4785 600.996 49.5632C602.862 49.648 603.457 49.6691 608.205 49.6691C612.953 49.6691 613.549 49.6494 615.414 49.5632C617.275 49.4785 618.546 49.1836 619.658 48.7516C620.807 48.3042 621.782 47.707 622.755 46.736C623.728 45.765 624.324 44.7895 624.772 43.6405C625.204 42.5297 625.501 41.2592 625.584 39.3989C625.669 37.5343 625.689 36.9401 625.689 32.1945C625.689 27.449 625.669 26.8533 625.584 24.9901C625.499 23.1297 625.204 21.8587 624.772 20.7486C624.324 19.5996 623.727 18.6256 622.755 17.6531C621.784 16.6805 620.807 16.0836 619.659 15.6375C618.546 15.2055 617.275 14.9091 615.415 14.8258C613.551 14.7411 612.955 14.72 608.206 14.72C603.458 14.72 602.862 14.7397 600.996 14.8258Z" fill="url(#paint0_linear_108_1436)"/>
<path fill-rule="evenodd" clip-rule="evenodd" d="M758.424 27.8749C760.387 29.2701 762.737 30.0155 765.145 30.0065V25.2342C764.672 25.2355 764.199 25.1848 763.737 25.0831V28.885C761.324 28.8893 758.97 28.1353 757.008 26.7295V36.5446C757.002 38.1551 756.561 39.7341 755.73 41.1139C754.899 42.4938 753.711 43.6232 752.29 44.3824C750.87 45.1415 749.271 45.5021 747.662 45.4259C746.053 45.3497 744.495 44.8396 743.153 43.9496C744.394 45.2059 745.981 46.0654 747.711 46.4194C749.442 46.7735 751.238 46.606 752.873 45.9383C754.509 45.2706 755.909 44.1326 756.897 42.6685C757.885 41.2044 758.416 39.4801 758.424 37.7138V27.8749ZM760.166 23.0071C759.168 21.9253 758.555 20.5439 758.424 19.0779V18.4575H757.088C757.253 19.3894 757.612 20.276 758.143 21.0599C758.673 21.8437 759.362 22.5071 760.166 23.0071ZM746.247 40.1715C745.783 39.5659 745.5 38.8424 745.427 38.0834C745.355 37.3244 745.497 36.5604 745.838 35.8783C746.179 35.1962 746.704 34.6234 747.354 34.2251C748.004 33.8269 748.753 33.6191 749.516 33.6255C749.937 33.6254 750.355 33.6898 750.756 33.8164V28.885C750.287 28.8229 749.814 28.7963 749.341 28.8055V32.6392C748.363 32.3302 747.305 32.4005 746.377 32.836C745.449 33.2715 744.719 34.0404 744.332 34.9897C743.945 35.9389 743.93 36.9991 744.289 37.9592C744.648 38.9194 745.356 39.7092 746.27 40.1715H746.247Z" fill="#EE1D52"/>
<path fill-rule="evenodd" clip-rule="evenodd" d="M757.007 26.6977C758.969 28.1035 761.323 28.8575 763.736 28.8532V25.0512C762.361 24.7605 761.112 24.0455 760.165 23.0071C759.362 22.5071 758.672 21.8437 758.142 21.0599C757.612 20.276 757.252 19.3894 757.087 18.4575H753.571V37.7138C753.568 38.5661 753.298 39.396 752.799 40.087C752.3 40.778 751.597 41.2954 750.789 41.5665C749.981 41.8376 749.108 41.8489 748.293 41.5987C747.479 41.3485 746.763 40.8494 746.246 40.1715C745.427 39.7584 744.771 39.0814 744.384 38.2498C743.998 37.4183 743.902 36.4806 744.113 35.5882C744.325 34.6957 744.831 33.9005 745.55 33.3308C746.268 32.7612 747.158 32.4503 748.075 32.4483C748.496 32.4497 748.914 32.514 749.316 32.6392V28.8055C747.58 28.8471 745.894 29.3947 744.465 30.381C743.036 31.3674 741.926 32.7495 741.272 34.3577C740.617 35.9659 740.446 37.7303 740.78 39.4342C741.114 41.1382 741.939 42.7075 743.152 43.9496C744.494 44.846 746.055 45.3614 747.667 45.4409C749.28 45.5204 750.884 45.1611 752.308 44.4012C753.732 43.6413 754.924 42.5093 755.756 41.1257C756.587 39.7422 757.028 38.1589 757.031 36.5446L757.007 26.6977Z" fill="#E3E3E3"/>
<path fill-rule="evenodd" clip-rule="evenodd" d="M763.736 25.0512L763.737 24.0249C762.474 24.0302 761.236 23.6775 760.166 23.0071C761.11 24.0485 762.36 24.7641 763.736 25.0512ZM757.088 18.4575C757.088 18.2746 757.032 18.0833 757.008 17.9004V17.28H752.156V36.5442C752.152 37.6229 751.72 38.6559 750.955 39.4164C750.19 40.1769 749.154 40.6028 748.076 40.6007C747.441 40.6039 746.814 40.457 746.247 40.1715C746.763 40.8494 747.479 41.3485 748.293 41.5987C749.108 41.8489 749.981 41.8376 750.789 41.5665C751.597 41.2954 752.3 40.778 752.799 40.087C753.298 39.396 753.568 38.5661 753.571 37.7138V18.4575H757.088ZM749.317 28.7972V27.7075C747.32 27.4363 745.29 27.8493 743.559 28.8792C741.827 29.909 740.495 31.4951 739.78 33.3788C739.065 35.2626 739.009 37.3329 739.622 39.2524C740.234 41.172 741.479 42.8279 743.153 43.9496C741.948 42.7046 741.133 41.1356 740.805 39.4348C740.478 37.7339 740.654 35.9746 741.31 34.3718C741.966 32.7689 743.075 31.392 744.501 30.409C745.927 29.4261 747.609 28.8799 749.34 28.8369L749.317 28.7972Z" fill="#69C9D0"/>
</g>
<defs>
<linearGradient id="paint0_linear_108_1436" x1="625.017" y1="49.6691" x2="590.067" y2="14.7004" gradientUnits="userSpaceOnUse">
<stop stop-color="#FBE18A"/>
<stop offset="0.21" stop-color="#FCBB45"/>
<stop offset="0.38" stop-color="#F75274"/>
<stop offset="0.52" stop-color="#D53692"/>
<stop offset="0.74" stop-color="#8F39CE"/>
<stop offset="1" stop-color="#5B4FE9"/>
</linearGradient>
<clipPath id="clip0_108_1436">
<rect width="784" height="64" fill="white"/>
</clipPath>
</defs>
</svg>
